<svg xmlns="http://www.w3.org/2000/svg" xmlns:xlink="http://www.w3.org/1999/xlink" width="384.026" height="104.342" viewBox="0 0 384.026 104.342">
  <defs>
    <linearGradient id="linear-gradient" x1="0.5" x2="0.5" y2="1" gradientUnits="objectBoundingBox">
      <stop offset="0" stop-color="#fe9689"/>
      <stop offset="1" stop-color="#fe3f87"/>
    </linearGradient>
  </defs>
  <g id="Grupo_464" data-name="Grupo 464" transform="translate(0.001 0)">
    <g id="Grupo_420" data-name="Grupo 420" transform="translate(89.948 14.793)">
      <path id="Caminho_121" data-name="Caminho 121" d="M37.689-55.408c-6.424,0-11.7,2.013-15.532,6.232V-74.2H7.2V-3.059H21.486V-9c3.739,4.506,9.3,6.711,16.2,6.711,14.477,0,25.7-10.355,25.7-26.558S52.166-55.408,37.689-55.408Zm-.671,40.844c-7.478,0-13.135-5.369-13.135-14.286s5.657-14.286,13.135-14.286S50.153-37.767,50.153-28.85,44.5-14.565,37.018-14.565Z" transform="translate(-7.2 74.2)" fill="#424242"/>
      <path id="Caminho_122" data-name="Caminho 122" d="M44.2-53.8v25.5c0,9.492-4.986,13.9-11.889,13.9-6.616,0-10.451-3.835-10.451-12.464V-53.8H6.9v29.147c0,15.916,9.108,23.2,22.052,23.2a20.869,20.869,0,0,0,16.011-6.9v6.136h14.19V-53.8Z" transform="translate(53.215 73.359)" fill="#424242"/>
      <path id="Caminho_123" data-name="Caminho 123" d="M44.2-53.8v25.5c0,9.492-4.986,13.9-11.889,13.9-6.616,0-10.451-3.835-10.451-12.464V-53.8H6.9v29.147c0,15.916,9.108,23.2,22.052,23.2a20.869,20.869,0,0,0,16.011-6.9v6.136h14.19V-53.8Z" transform="translate(109.782 73.359)" fill="#424242"/>
      <path id="Caminho_124" data-name="Caminho 124" d="M37.689-19.684c-6.424,0-11.7-2.013-15.532-6.232V-.892H7.2V-72.033H21.486v5.944c3.739-4.506,9.3-6.711,16.2-6.711,14.477,0,25.7,10.355,25.7,26.558S52.166-19.684,37.689-19.684Zm-.671-40.844c-7.478,0-13.135,5.369-13.135,14.286s5.657,14.286,13.135,14.286,13.135-5.369,13.135-14.286S44.5-60.528,37.018-60.528Z" transform="translate(167.296 90.441)" fill="#424242"/>
      <path id="Caminho_125" data-name="Caminho 125" d="M54.362,26.75C54.362,10.163,42.665,0,27.517,0,11.793,0,0,11.122,0,26.558,0,41.9,11.6,53.116,29.434,53.116c9.3,0,16.491-2.876,21.285-8.341l-7.958-8.629a17.486,17.486,0,0,1-12.943,4.986c-7.862,0-13.327-3.931-14.765-10.355H54.075C54.17,29.53,54.362,27.9,54.362,26.75ZM27.613,11.313A12.257,12.257,0,0,1,40.268,22.052H14.861C15.916,15.436,20.805,11.313,27.613,11.313Z" transform="translate(227.18 26.829) rotate(-16)" fill="#424242"/>
    </g>
    <path id="União_5" data-name="União 5" d="M19.187,93.639a31.522,31.522,0,1,1,12.226,2.469A31.316,31.316,0,0,1,19.187,93.639Zm13.04-16.687,7.667,4.042a1.807,1.807,0,0,0,.852.215,1.838,1.838,0,0,0,1.4-.661,1.8,1.8,0,0,0,.4-1.49L41.086,70.5a1.84,1.84,0,0,1,.527-1.624l6.2-6.064a1.836,1.836,0,0,0-1.014-3.13l-8.572-1.249a1.835,1.835,0,0,1-1.379-1l-3.833-7.79a1.827,1.827,0,0,0-3.281,0L25.9,57.424a1.83,1.83,0,0,1-1.378,1l-8.573,1.249a1.837,1.837,0,0,0-1.014,3.13l6.2,6.064a1.835,1.835,0,0,1,.526,1.624L20.2,79.058a1.8,1.8,0,0,0,.4,1.49,1.835,1.835,0,0,0,1.4.661,1.81,1.81,0,0,0,.852-.215l7.666-4.042a1.828,1.828,0,0,1,1.7,0ZM45.5,32.023c-.832-.355-1.686-.676-2.527-.953V22.335A11.259,11.259,0,0,0,31.721,11.084h-.344A11.259,11.259,0,0,0,20.127,22.335v8.723c-.853.289-1.706.61-2.538.965a35.662,35.662,0,0,0-8.546,5.121V22.335A22.359,22.359,0,0,1,31.367,0h.344A22.361,22.361,0,0,1,54.045,22.335V37.144A35.68,35.68,0,0,0,45.5,32.023Z" transform="translate(-0.001 0)" fill="url(#linear-gradient)"/>
  </g>
</svg>
